<svg data-name="Layer 1" viewBox="0 0 32 32" xmlns="http://www.w3.org/2000/svg"><path d="M28 5H4a2 2 0 0 0-2 2v17a2 2 0 0 0 2 2h14v3a1 1 0 0 0 .53.88 1 1 0 0 0 1-.05L22 28.2l2.45 1.63A1 1 0 0 0 26 29v-3h2a2 2 0 0 0 2-2V7a2 2 0 0 0-2-2Zm-5.41 16.94a3 3 0 1 1 2.35-2.35 3 3 0 0 1-2.35 2.35ZM24 27.13l-1.45-1a1 1 0 0 0-1.1 0l-1.45 1v-3.55a5 5 0 0 0 4 0ZM28 24h-2v-2a4.93 4.93 0 0 0 .88-4.1A5 5 0 0 0 17 19a4.93 4.93 0 0 0 1 3v2H4V7h24Z" fill="#333333" class="fill-4d4d4d"></path><path d="M7 12h18a1 1 0 0 0 0-2H7a1 1 0 0 0 0 2ZM7 16h8a1 1 0 0 0 0-2H7a1 1 0 0 0 0 2ZM7 20h8a1 1 0 0 0 0-2H7a1 1 0 0 0 0 2Z" fill="#333333" class="fill-4d4d4d"></path></svg>